<svg width="310" height="347" viewBox="0 0 310 347" fill="none" xmlns="http://www.w3.org/2000/svg">
<path d="M23 174.631C23 172.62 24.4709 170.289 26.2853 169.424L74.7147 146.324C76.5291 145.459 78 146.387 78 148.397V207.74C78 209.751 76.5291 212.082 74.7147 212.947L26.2853 236.047C24.4709 236.912 23 235.984 23 233.974V174.631Z" fill="#DADADA" fill-opacity="0.7"/>
<path d="M56.361 173.322C56.0458 172.075 53.4607 172.4 53.4607 172.4C50.119 173.086 47.4708 176.794 47.4708 176.794C45.5793 179.443 45.5162 182.616 45.6423 184.163C45.5793 187.476 46.6512 189.759 46.6512 189.759C47.66 191.094 48.9841 192.628 52.0105 192.093C54.7217 189.961 56.361 187.433 57.3699 185.205C58.1265 183.447 58.5048 179.076 58.6939 177.588C59.5766 172.207 56.361 173.322 56.361 173.322ZM52.1997 187.462C51.1278 187.973 50.182 187.865 50.182 187.167L54.1542 185.272C54.1542 185.971 53.2715 186.951 52.1997 187.462ZM56.4241 184.469C56.361 184.569 56.361 184.709 56.361 184.848C55.9827 185.029 55.6044 185 55.4153 184.671C54.0912 182.857 52.0736 184.029 52.0736 184.029C52.0736 184.029 49.9929 184.812 48.6688 187.889C48.4796 188.328 48.2274 188.658 47.9752 188.848C47.9752 188.708 47.9752 188.569 47.9122 188.459C47.3447 187.402 46.9034 184.749 46.9034 183.142C47.4708 182.383 48.1644 181.772 48.858 181.302C50.3712 180.37 53.0824 177.331 53.3346 177.141C55.6675 175.12 56.9285 176.404 57.559 177.71C57.3699 179.407 56.8654 183.141 56.4241 184.469Z" fill="#4462ED"/>
<path d="M57.559 189.796C56.1088 192.583 54.2173 194.603 52.1997 195.565C50.182 196.528 48.2905 196.312 46.8403 194.908C47.3447 194.388 47.7861 193.758 48.0383 193.149C48.9841 193.606 50.119 193.833 51.6953 193.57L52.0105 193.49L52.3258 193.27C53.7759 192.159 55.037 190.789 56.1719 189.2C56.4871 189.608 56.9285 189.887 57.559 189.796Z" fill="#4462ED"/>
<path d="M45.1379 205.151V208.434C43.3725 208.647 41.7332 208.521 40.2199 208.195V205.401L43.1834 203.987C44.2552 203.476 45.1379 204.033 45.1379 205.151Z" fill="#4462ED"/>
<path d="M64.0533 192.077V192.636L61.0899 194.049C59.3244 194.891 57.9373 197.16 57.9373 199.046V202.748C56.1088 204.179 54.1542 205.391 52.1366 206.353C50.119 207.316 48.1644 207.968 46.399 208.252V204.549C46.399 202.593 44.9488 201.748 43.2464 202.56L40.2199 204.004V203.445C40.2199 200.581 42.5528 197.163 45.4532 195.779L45.8315 196.158C47.5339 197.791 49.8037 198.035 52.1997 196.892C54.5956 195.75 56.8654 193.34 58.5678 190.083L58.9461 189.344L58.8831 189.374C61.7834 188.06 64.0533 189.283 64.0533 192.077Z" fill="#4462ED"/>
<path d="M61.0899 195.446L64.0533 194.033V196.827C62.54 198.597 60.9007 200.287 59.1983 201.727V198.444C59.1983 197.327 60.018 195.958 61.0899 195.446Z" fill="#4462ED"/>
<path d="M105.873 45.9768C99.8649 53.8355 91.3167 62.7614 81.6496 68.3074C80.1643 69.1595 78.9832 71.9624 79.0002 73.6062L79.3787 103.507C79.3805 103.678 79.3496 103.73 79.3787 103.885C81.7537 116.595 88.6969 119.032 105.116 120.538C105.894 120.61 107.045 119.963 107.824 119.149C124.248 101.973 131.152 93.2947 133.525 77.947C133.552 77.7689 133.567 77.5911 133.569 77.4225L135.773 45.9768C135.789 44.4792 133.687 43.7373 132.367 44.0843C123.284 46.4709 117.012 46.9382 110.414 45.2198C109.389 44.9528 106.858 44.6883 105.873 45.9768Z" fill="#DADADA" fill-opacity="0.7"/>
<path d="M107.374 48.2177C101.328 56.1408 93.9505 63.9228 84.1862 69.4958C82.7652 70.3069 81.6323 72.1407 81.6485 73.7129L81.9584 103.777C81.9601 103.942 81.9748 104.102 82.0026 104.251C84.3785 116.984 91.2945 119.059 107.757 120.567C108.501 120.635 109.396 120.208 110.14 119.43C126.608 102.212 133.523 93.5319 135.897 78.1602C135.923 77.9898 135.937 77.8197 135.939 77.6585L136.252 47.297C136.267 45.8647 135.342 45.0849 134.078 45.4184C124.917 47.8368 117.224 48.3438 110.584 46.5954C109.605 46.3375 108.315 46.9842 107.374 48.2177Z" fill="#4462ED"/>
<path d="M211 168.47C211 167.027 212.056 165.353 213.358 164.732L282.335 131.832C283.638 131.211 285.952 132.203 285.952 133.646L286 177.647C286 178.551 285.548 179.906 284.193 181.262L214.266 214.477C212.963 215.098 211 213.676 211 212.233V168.47Z" fill="#DADADA" fill-opacity="0.7"/>
<path d="M212.306 169.123C212.306 167.68 213.362 166.007 214.665 165.386L283.642 132.485C284.944 131.864 286 132.53 286 133.973V177.736C286 179.179 284.944 180.853 283.642 181.474L214.665 214.374C213.362 214.995 212.306 214.329 212.306 212.886V169.123Z" fill="#DADADA" fill-opacity="0.7"/>
<path d="M229.993 174.24C231.296 173.618 232.545 173.596 233.467 174.177C234.388 174.758 234.906 175.896 234.906 177.34C234.906 178.783 234.388 180.415 233.467 181.875C232.545 183.335 231.296 184.505 229.993 185.126C228.69 185.748 227.44 185.77 226.519 185.189C225.598 184.608 225.08 183.47 225.08 182.026C225.08 180.583 225.598 178.951 226.519 177.491C227.44 176.031 228.69 174.861 229.993 174.24ZM229.993 187.848C235.422 185.258 239.819 185.597 239.819 188.604V191.326L220.167 200.699V197.978C220.167 194.97 224.564 190.437 229.993 187.848Z" fill="#4462ED"/>
<path d="M212.306 169.123C212.306 167.68 213.362 166.007 214.665 165.386L283.642 132.485C284.944 131.864 286 132.53 286 133.973V139.525L212.306 174.675V169.123Z" fill="#4462ED"/>
<path d="M247.385 168.232C247.385 166.879 248.374 165.31 249.595 164.728L276.715 151.792C277.936 151.21 278.925 151.835 278.925 153.187C278.925 154.54 277.936 156.109 276.715 156.691L249.595 169.626C248.374 170.209 247.385 169.584 247.385 168.232Z" fill="#4462ED"/>
<path d="M247.385 176.396C247.385 175.044 248.374 173.475 249.595 172.892L262.86 166.565C264.081 165.983 265.071 166.608 265.071 167.96C265.071 169.313 264.081 170.882 262.86 171.464L249.595 177.791C248.374 178.374 247.385 177.749 247.385 176.396Z" fill="#4462ED"/>
<path d="M247.385 184.561C247.385 183.208 248.374 181.64 249.595 181.057L271.409 170.653C272.63 170.07 273.619 170.695 273.619 172.048C273.619 173.4 272.63 174.969 271.409 175.552L249.595 185.956C248.374 186.538 247.385 185.914 247.385 184.561Z" fill="#4462ED"/>
<path fill-rule="evenodd" clip-rule="evenodd" d="M181.12 55.4664C179.949 56.0249 179 57.5292 179 58.8264L179 127.529C179 128.826 179.949 129.425 181.12 128.867L229.88 105.609C231.051 105.051 232 103.547 232 102.249L232 33.5467C232 32.2495 231.051 31.6506 229.88 32.2091L181.12 55.4664ZM186.95 57.0896C186.218 57.4387 185.625 58.3789 185.625 59.1896C185.625 60.0004 186.218 60.3747 186.95 60.0257L224.05 42.3299C224.782 41.9808 225.375 41.0406 225.375 40.2299C225.375 39.4191 224.782 39.0448 224.05 39.3939L186.95 57.0896Z" fill="#DADADA" fill-opacity="0.7"/>
<path d="M188.547 66.6038C187.089 67.2995 185.896 69.1909 185.896 70.8069C185.896 72.4228 187.089 73.1758 188.547 72.4801C190.006 71.7844 191.199 69.893 191.199 68.2771C191.199 66.6611 190.006 65.9081 188.547 66.6038ZM188.017 71.264L186.691 70.4274L187.065 69.8348L188.017 70.4325L190.03 67.2424L190.404 67.4813L188.017 71.264Z" fill="#4462ED"/>
<path d="M198.065 65.0021C198.065 64.1914 198.659 63.2512 199.39 62.9021L227.215 49.6303C227.947 49.2813 228.54 49.6556 228.54 50.4663C228.54 51.2771 227.947 52.2173 227.215 52.5663L199.39 65.8382C198.659 66.1872 198.065 65.8129 198.065 65.0021Z" fill="#4462ED"/>
<path d="M198.064 78.2167C198.064 77.406 198.658 76.4658 199.389 76.1167L227.214 62.8449C227.946 62.4959 228.539 62.8702 228.539 63.6809C228.539 64.4917 227.946 65.4319 227.214 65.7809L199.389 79.0528C198.658 79.4018 198.064 79.0275 198.064 78.2167Z" fill="#4462ED"/>
<path d="M198.064 91.4288C198.064 90.618 198.658 89.6778 199.389 89.3288L227.214 76.057C227.946 75.7079 228.539 76.0822 228.539 76.893C228.539 77.7037 227.946 78.6439 227.214 78.993L199.389 92.2648C198.658 92.6138 198.064 92.2395 198.064 91.4288Z" fill="#4462ED"/>
<path d="M198.064 104.641C198.064 103.83 198.658 102.89 199.389 102.541L227.214 89.269C227.946 88.92 228.539 89.2943 228.539 90.105C228.539 90.9158 227.946 91.856 227.214 92.205L199.389 105.477C198.658 105.826 198.064 105.452 198.064 104.641Z" fill="#4462ED"/>
<path d="M97.5271 247.085C82.5327 254.237 69 274.791 69 291.404C69 308.017 81.5694 316.477 96.5638 309.325C100.921 307.247 105.022 304.155 108.867 300.191C109.764 299.195 112.685 297.962 112.3 297.152C111.787 296.402 108.995 295.644 108.098 296.498C104.766 299.933 100.28 303.293 96.5638 305.065C83.6199 311.239 73.2392 304.547 73.2392 290.349C73.2392 276.15 83.6199 259.555 96.5638 253.381C109.508 247.207 119.888 253.757 119.888 268.098V275.765C119.888 278.321 117.966 281.368 115.659 282.468C113.352 283.569 111.43 282.356 111.43 279.8L113.828 272.046C113.828 262.959 108.297 254.931 97.5271 260.33C89.1969 264.303 81.5694 277.288 81.5694 286.375C81.5694 295.463 88.2336 299.809 96.5638 295.836C101.177 293.635 108.081 286.191 110.772 281.216C111.797 284.277 112.199 288.378 115.659 286.728C120.145 284.588 123.733 278.901 123.733 273.932L126.564 266.87C125.545 250.569 114.847 237.916 97.5271 247.085ZM96.5638 291.576C90.4122 294.51 85.4141 291.357 85.4141 284.541C85.4141 277.726 90.4122 269.804 96.5638 266.87C102.715 263.936 107.713 267.09 107.713 273.905C107.713 280.721 102.715 288.642 96.5638 291.576Z" fill="#DADADA" fill-opacity="0.7"/>
<path d="M99.6203 249.121C84.6259 256.273 72.451 275.569 72.451 292.182C72.451 308.795 84.6259 316.477 99.6203 309.325C103.978 307.246 108.079 304.154 111.923 300.191C112.82 299.195 113.205 297.733 112.82 296.923C112.308 296.173 111.154 296.298 110.257 297.152C106.925 300.587 103.337 303.292 99.6203 305.065C86.6764 311.239 76.2957 304.547 76.2957 290.348C76.2957 276.149 86.6764 259.555 99.6203 253.381C112.564 247.207 122.945 253.757 122.945 268.098V275.765C122.945 278.321 121.022 281.368 118.716 282.468C116.409 283.568 114.486 282.355 114.486 279.8V272.132C114.486 263.045 107.822 258.698 99.4921 262.671C91.1619 266.645 84.6259 277.288 84.6259 286.375C84.6259 295.462 91.2901 299.809 99.6203 295.836C104.234 293.635 108.463 289.204 111.154 284.229C112.18 287.289 115.255 288.378 118.716 286.728C123.201 284.588 126.79 278.901 126.79 273.931V266.264C126.79 249.651 114.615 241.969 99.6203 249.121ZM99.6203 291.576C93.4687 294.51 88.4706 291.357 88.4706 284.541C88.4706 277.726 93.4687 269.804 99.6203 266.87C105.772 263.936 110.77 267.089 110.77 273.905C110.77 280.72 105.772 288.642 99.6203 291.576Z" fill="#4462ED"/>
<path d="M190.07 243.954C192.539 242.776 196.374 242.671 198.12 243.738C199.77 244.747 201.525 247.538 201.713 250.11C201.735 250.402 201.71 250.717 201.672 251.036L199.437 269.433C199.399 269.752 199.382 270.063 199.37 270.372C199.265 272.943 198.299 275.799 196.653 278.377C194.907 281.11 192.166 285.477 189.697 286.654C187.228 287.832 185.234 285.724 183.488 284.656C181.742 283.589 180.761 281.479 180.761 278.792V258.527C180.761 255.839 181.742 252.794 183.488 250.061C185.234 247.329 187.601 245.132 190.07 243.954ZM212.773 266.076C212.903 266.151 213.03 266.234 213.148 266.327C216.852 269.245 206.87 287.639 197.372 296.639C195.415 298.493 194.172 301.62 195.04 303.356C196.247 305.769 193.463 310.144 190.781 310.051L189.005 309.99C187.812 309.949 187.247 308.693 187.708 307.11C188.473 304.489 186.236 302.757 184.14 303.111C177.075 304.304 169.741 297.674 169.015 289.148C168.761 286.17 171.843 283.338 174.304 283.666C175.184 283.783 175.892 284.286 176.27 285.136C178.255 289.597 177.206 290.368 179.1 291.526C182.009 293.305 185.956 293.202 190.07 291.239C194.185 289.277 196.917 287.456 201.329 281.039C205.741 274.622 205.431 269.329 208.147 267.001C210.451 265.027 212.214 265.752 212.773 266.076Z" fill="#DADADA" fill-opacity="0.7"/>
<path d="M192.477 245.558C194.946 244.381 197.313 244.319 199.059 245.387C200.805 246.454 201.786 248.564 201.786 251.251V271.516C201.786 274.203 200.805 277.248 199.059 279.981C197.313 282.714 194.946 284.911 192.477 286.089C190.008 287.266 187.64 287.328 185.894 286.261C184.149 285.193 183.168 283.084 183.168 280.396V260.131C183.168 257.444 184.149 254.399 185.894 251.666C187.64 248.933 190.008 246.736 192.477 245.558ZM211.094 267.076C212.808 266.259 214.222 267.133 213.971 269.13C212.805 278.437 207.237 288.274 199.798 294.728C197.445 296.769 195.58 299.937 195.58 302.701V304.814C195.58 306.712 194.191 308.914 192.477 309.731C190.763 310.549 189.374 309.672 189.374 307.774V305.661C189.374 302.897 187.508 301.508 185.155 301.712C177.717 302.355 172.149 297.828 170.982 289.635C170.732 287.876 172.145 285.654 173.859 284.836C175.573 284.019 176.93 284.927 177.282 286.617C177.89 289.534 179.347 291.81 181.506 293.13C184.416 294.909 188.362 294.806 192.477 292.844C196.592 290.881 200.538 287.22 203.447 282.665C205.606 279.285 207.063 275.619 207.671 272.122C208.024 270.096 209.381 267.893 211.094 267.076Z" fill="#4462ED"/>
</svg>
