<svg width="38" height="38" viewBox="0 0 38 38" fill="none" xmlns="http://www.w3.org/2000/svg">
<path d="M19.0001 29.6667C16.1711 29.6667 13.458 28.5429 11.4576 26.5425C9.45722 24.5421 8.33341 21.829 8.33341 19C8.33341 16.171 9.45722 13.4579 11.4576 11.4575C13.458 9.45716 16.1711 8.33335 19.0001 8.33335C21.8291 8.33335 24.5422 9.45716 26.5426 11.4575C28.5429 13.4579 29.6667 16.171 29.6667 19C29.6667 21.829 28.5429 24.5421 26.5426 26.5425C24.5422 28.5429 21.8291 29.6667 19.0001 29.6667ZM19.0001 5.66669C17.2491 5.66669 15.5153 6.01156 13.8976 6.68163C12.28 7.35169 10.8101 8.33382 9.57199 9.57193C7.07151 12.0724 5.66675 15.4638 5.66675 19C5.66675 22.5362 7.07151 25.9276 9.57199 28.4281C10.8101 29.6662 12.28 30.6484 13.8976 31.3184C15.5153 31.9885 17.2491 32.3334 19.0001 32.3334C22.5363 32.3334 25.9277 30.9286 28.4282 28.4281C30.9287 25.9276 32.3334 22.5362 32.3334 19C32.3334 17.2491 31.9885 15.5152 31.3185 13.8976C30.6484 12.2799 29.6663 10.81 28.4282 9.57193C27.1901 8.33382 25.7202 7.35169 24.1025 6.68163C22.4849 6.01156 20.751 5.66669 19.0001 5.66669Z" fill="#68747F"/>
<rect x="1.5" y="1.5" width="35" height="35" rx="17.5" stroke="#4462ED" stroke-width="3"/>
</svg>
